<svg width="158" height="38" viewBox="0 0 158 38" fill="none" xmlns="http://www.w3.org/2000/svg">
<g clip-path="url(#clip0_609_8022)">
<path d="M49.3599 33.3924L45.4144 27.6384C47.2006 25.0638 48.215 22.1218 48.215 18.9981C48.215 8.86655 37.5597 0.649231 24.419 0.649231C11.2783 0.649231 0.623047 8.86655 0.623047 19.0019C0.623047 29.1372 11.2783 37.3508 24.419 37.3508C29.9912 37.3508 35.1105 35.8705 39.1683 33.3961H49.3599V33.3924Z" fill="#9481BC"/>
<path d="M44.5125 27.3379C46.2588 25.227 47.2733 22.7303 47.2733 20.0555C47.2733 12.4837 39.1867 6.34386 29.2089 6.34386C19.2311 6.34386 11.1445 12.4799 11.1445 20.0555C11.1445 27.631 19.2311 33.7671 29.2089 33.7671C33.1797 33.7671 36.8498 32.7914 39.8316 31.1442L47.2733 32.1088L44.5125 27.3416V27.3379Z" fill="white"/>
<path d="M17.81 19.9553C18.4623 19.9553 18.9911 19.4138 18.9911 18.7459C18.9911 18.0779 18.4623 17.5365 17.81 17.5365C17.1577 17.5365 16.6289 18.0779 16.6289 18.7459C16.6289 19.4138 17.1577 19.9553 17.81 19.9553Z" stroke="black" stroke-width="1.41487" stroke-miterlimit="10"/>
<path d="M28.4405 3.92134C30.0346 3.92134 31.6577 4.06603 33.3098 4.3591C34.6612 4.59282 35.6286 4.91187 36.2155 5.31995C36.7988 5.72804 37.0923 6.28823 37.0923 7.00423C37.0923 7.45683 36.9872 7.80926 36.7734 8.06524C36.5597 8.32122 36.0959 8.62914 35.3858 8.99642C34.5598 9.43418 34.0851 9.94614 33.9656 10.5397C33.846 11.1296 33.7337 13.4223 33.6359 17.4178C33.5924 21.2797 33.5526 23.5984 33.52 24.3737C33.4837 25.1454 33.3968 25.8985 33.2519 26.6256C32.8388 28.7551 32.0055 30.4245 30.752 31.6339C29.7267 32.6245 28.4115 33.4035 26.7993 33.9748C25.1906 34.5424 23.4951 34.8281 21.7162 34.8281C20.1365 34.8281 18.5533 34.6166 16.9628 34.1937C15.3759 33.7708 13.9991 33.1883 12.8289 32.4427C11.8616 31.8305 11.0935 31.0032 10.521 29.9608C9.95223 28.9183 9.66602 27.8054 9.66602 26.6256C9.66602 25.1677 10.1153 23.962 11.0102 23.0048C11.9087 22.0514 13.0318 21.5728 14.3832 21.5728C15.7346 21.5728 16.8323 21.9735 17.7562 22.7748C18.6801 23.591 19.1438 24.5963 19.1438 25.7909C19.1438 26.0988 19.0569 26.6071 18.8866 27.3231C18.8576 27.4678 18.8431 27.631 18.8431 27.8054C18.8431 28.2728 19.0062 28.6512 19.3358 28.9443C19.6619 29.2374 20.0967 29.382 20.6401 29.382C21.593 29.382 22.3611 28.9443 22.948 28.0688C23.5313 27.1932 23.8248 26.0432 23.8248 24.6149L23.803 22.6264L23.7596 17.2694C23.6327 14.0196 23.5349 12.1053 23.4697 11.5302C23.4045 10.9552 23.2451 10.4841 22.9878 10.1205C22.7741 9.82742 22.5857 9.63822 22.4227 9.55289C22.2596 9.46386 21.814 9.32659 21.0894 9.13739C20.7488 9.06319 20.4554 8.85915 20.2126 8.52527C19.9699 8.19138 19.8503 7.83152 19.8503 7.45312C19.8503 6.66663 20.151 6.03596 20.7597 5.56109C21.3647 5.08623 22.3502 4.70412 23.7161 4.41104C25.2377 4.09199 26.8138 3.92876 28.4369 3.92876L28.4405 3.92134Z" fill="#231F20"/>
<path d="M29.7124 19.9553C30.3647 19.9553 30.8935 19.4138 30.8935 18.7459C30.8935 18.0779 30.3647 17.5365 29.7124 17.5365C29.06 17.5365 28.5312 18.0779 28.5312 18.7459C28.5312 19.4138 29.06 19.9553 29.7124 19.9553Z" stroke="white" stroke-width="1.41487" stroke-miterlimit="10"/>
<path d="M42.187 19.9553C42.8393 19.9553 43.3681 19.4138 43.3681 18.7459C43.3681 18.0779 42.8393 17.5365 42.187 17.5365C41.5347 17.5365 41.0059 18.0779 41.0059 18.7459C41.0059 19.4138 41.5347 19.9553 42.187 19.9553Z" stroke="black" stroke-width="1.41487" stroke-miterlimit="10"/>
</g>
<path d="M65.4284 24.2315C65.4284 24.9754 65.3624 25.6565 65.2303 26.2748C65.0982 26.8931 64.8718 27.4196 64.551 27.8544C64.2302 28.2891 63.8056 28.6273 63.2773 28.8688C62.7583 29.1007 62.1121 29.2166 61.3384 29.2166C61.0742 29.2166 60.81 29.1924 60.5459 29.1441C60.2911 29.1055 60.0552 29.0475 59.8382 28.9702C59.6212 28.9026 59.4325 28.8301 59.2721 28.7529C59.1117 28.6659 59.0032 28.5934 58.9466 28.5355C58.8995 28.4775 58.857 28.4195 58.8193 28.3616C58.791 28.3036 58.7626 28.236 58.7343 28.1587C58.7155 28.0718 58.7013 27.9703 58.6919 27.8544C58.6825 27.7288 58.6777 27.579 58.6777 27.4051C58.6777 27.1926 58.6825 27.0187 58.6919 26.8834C58.7108 26.7385 58.7391 26.6274 58.7768 26.5501C58.8145 26.4632 58.857 26.4052 58.9042 26.3762C58.9608 26.3376 59.0268 26.3183 59.1023 26.3183C59.1778 26.3183 59.2721 26.3569 59.3854 26.4342C59.508 26.5018 59.6495 26.5791 59.8099 26.6661C59.9798 26.753 60.1732 26.8351 60.3902 26.9124C60.6072 26.9801 60.8619 27.0139 61.1544 27.0139C61.4752 27.0139 61.7488 26.9752 61.9752 26.8979C62.2017 26.811 62.3904 26.6564 62.5413 26.4342C62.6923 26.212 62.8055 25.9077 62.881 25.5212C62.9565 25.1251 62.9942 24.6131 62.9942 23.9851V10.5659C62.9942 10.4983 63.0131 10.4355 63.0508 10.3775C63.0886 10.3195 63.1546 10.2712 63.249 10.2326C63.3433 10.1939 63.466 10.165 63.6169 10.1456C63.7773 10.1263 63.9755 10.1167 64.2113 10.1167C64.4378 10.1167 64.6312 10.1263 64.7916 10.1456C64.952 10.165 65.0746 10.1939 65.1595 10.2326C65.2539 10.2712 65.3199 10.3195 65.3577 10.3775C65.4048 10.4355 65.4284 10.4983 65.4284 10.5659V24.2315Z" fill="black"/>
<path d="M81.8452 21.9273C81.8452 22.99 81.7084 23.9706 81.4348 24.8691C81.1612 25.7579 80.7508 26.526 80.2035 27.1733C79.6658 27.8206 78.9864 28.3278 78.1656 28.6949C77.3542 29.0523 76.4107 29.2311 75.3351 29.2311C74.2878 29.2311 73.3727 29.0717 72.5896 28.7529C71.8159 28.434 71.1696 27.9703 70.6507 27.3617C70.1318 26.753 69.7449 26.0139 69.4902 25.1444C69.2354 24.275 69.1081 23.2895 69.1081 22.1882C69.1081 21.1254 69.2401 20.1497 69.5043 19.2609C69.7779 18.3624 70.1836 17.5895 70.7214 16.9422C71.2687 16.2949 71.948 15.7925 72.7594 15.4351C73.5708 15.0776 74.519 14.8989 75.604 14.8989C76.6513 14.8989 77.5618 15.0583 78.3354 15.3771C79.1185 15.6959 79.7695 16.1597 80.2885 16.7683C80.8074 17.3769 81.1942 18.116 81.449 18.9855C81.7131 19.855 81.8452 20.8356 81.8452 21.9273ZM79.3827 22.0867C79.3827 21.3815 79.3167 20.7148 79.1846 20.0869C79.0619 19.4589 78.8544 18.9082 78.5619 18.4348C78.2694 17.9614 77.8731 17.5895 77.3731 17.319C76.873 17.0388 76.2503 16.8987 75.5049 16.8987C74.8162 16.8987 74.2218 17.0243 73.7217 17.2755C73.2311 17.5267 72.8254 17.8842 72.5046 18.3479C72.1839 18.802 71.9433 19.343 71.7829 19.9709C71.6319 20.5989 71.5564 21.2849 71.5564 22.0288C71.5564 22.7437 71.6178 23.4151 71.7404 24.0431C71.8725 24.6711 72.0848 25.2217 72.3773 25.6951C72.6792 26.1589 73.0802 26.5308 73.5802 26.811C74.0803 27.0815 74.703 27.2167 75.4483 27.2167C76.1277 27.2167 76.7173 27.0912 77.2174 26.84C77.7174 26.5888 78.1279 26.2361 78.4487 25.7821C78.7694 25.328 79.0053 24.787 79.1563 24.159C79.3072 23.531 79.3827 22.8403 79.3827 22.0867Z" fill="black"/>
<path d="M97.0025 21.8983C97.0025 23.0287 96.8798 24.0479 96.6345 24.9561C96.3986 25.8545 96.0448 26.6226 95.5731 27.2602C95.1108 27.8979 94.5399 28.3857 93.8606 28.7239C93.1813 29.062 92.4029 29.2311 91.5255 29.2311C91.1198 29.2311 90.7424 29.1876 90.3933 29.1007C90.0536 29.0234 89.7187 28.8929 89.3885 28.7094C89.0582 28.5258 88.728 28.294 88.3978 28.0138C88.0676 27.7336 87.7185 27.3955 87.3505 26.9994V28.5934C87.3505 28.6707 87.3316 28.7384 87.2939 28.7963C87.2562 28.8543 87.1948 28.9026 87.1099 28.9412C87.025 28.9702 86.9165 28.9944 86.7844 29.0137C86.6618 29.033 86.5014 29.0427 86.3032 29.0427C86.1145 29.0427 85.9541 29.033 85.8221 29.0137C85.69 28.9944 85.5815 28.9702 85.4965 28.9412C85.4116 28.9026 85.355 28.8543 85.3267 28.7963C85.2984 28.7384 85.2843 28.6707 85.2843 28.5934V9.23267C85.2843 9.15538 85.2984 9.08775 85.3267 9.02979C85.3645 8.97182 85.4258 8.92351 85.5107 8.88487C85.6051 8.84622 85.7277 8.81724 85.8787 8.79792C86.0296 8.7786 86.2183 8.76894 86.4448 8.76894C86.6806 8.76894 86.8741 8.7786 87.025 8.79792C87.176 8.81724 87.2939 8.84622 87.3788 8.88487C87.4637 8.92351 87.5251 8.97182 87.5628 9.02979C87.6005 9.08775 87.6194 9.15538 87.6194 9.23267V17.0436C87.9968 16.6475 88.3601 16.3142 88.7091 16.0437C89.0677 15.7732 89.4168 15.5558 89.7564 15.3916C90.0961 15.2177 90.4357 15.0921 90.7754 15.0148C91.1151 14.9375 91.4736 14.8989 91.851 14.8989C92.7756 14.8989 93.5634 15.0873 94.2144 15.4641C94.8749 15.8408 95.408 16.348 95.8137 16.9857C96.2288 17.6136 96.5307 18.3527 96.7194 19.2029C96.9081 20.0531 97.0025 20.9515 97.0025 21.8983ZM94.5399 22.1737C94.5399 21.5071 94.488 20.8598 94.3843 20.2318C94.2899 19.6038 94.1201 19.0483 93.8748 18.5653C93.6295 18.0822 93.304 17.6958 92.8983 17.4059C92.4926 17.1064 91.9878 16.9567 91.384 16.9567C91.082 16.9567 90.7848 17.0002 90.4923 17.0871C90.1999 17.1741 89.9027 17.319 89.6007 17.5219C89.2988 17.7247 88.9828 17.9856 88.6525 18.3044C88.3317 18.6232 87.9874 19.0242 87.6194 19.5072V24.7097C88.261 25.5116 88.8743 26.125 89.4592 26.5501C90.0442 26.9656 90.6527 27.1733 91.2849 27.1733C91.8699 27.1733 92.3699 27.0284 92.785 26.7385C93.2002 26.4487 93.5351 26.0671 93.7899 25.5937C94.054 25.1106 94.2427 24.5744 94.356 23.9851C94.4786 23.3861 94.5399 22.7823 94.5399 22.1737Z" fill="black"/>
<path d="M119.576 26.3038C119.576 26.4584 119.571 26.5936 119.561 26.7095C119.552 26.8255 119.533 26.9269 119.505 27.0139C119.486 27.1008 119.458 27.1781 119.42 27.2457C119.382 27.3134 119.316 27.3955 119.222 27.4921C119.127 27.5887 118.929 27.7384 118.627 27.9413C118.325 28.1345 117.948 28.3278 117.495 28.521C117.052 28.7046 116.538 28.8591 115.953 28.9847C115.377 29.12 114.745 29.1876 114.056 29.1876C112.867 29.1876 111.792 28.9847 110.829 28.579C109.876 28.1732 109.06 27.5742 108.381 26.782C107.711 25.9898 107.192 25.014 106.824 23.8547C106.466 22.6857 106.286 21.3428 106.286 19.826C106.286 18.2706 106.48 16.8842 106.867 15.6669C107.263 14.4496 107.815 13.4207 108.523 12.5802C109.23 11.7301 110.075 11.0828 111.056 10.6384C112.046 10.1939 113.141 9.97174 114.339 9.97174C114.868 9.97174 115.382 10.0249 115.882 10.1311C116.382 10.2278 116.844 10.3534 117.269 10.5079C117.693 10.6625 118.071 10.8412 118.401 11.0441C118.731 11.247 118.958 11.4161 119.08 11.5513C119.212 11.6769 119.297 11.7735 119.335 11.8412C119.373 11.9088 119.401 11.9909 119.42 12.0875C119.448 12.1745 119.467 12.2807 119.476 12.4063C119.495 12.5319 119.505 12.6817 119.505 12.8556C119.505 13.0488 119.495 13.213 119.476 13.3483C119.458 13.4835 119.429 13.5995 119.392 13.6961C119.354 13.783 119.307 13.8507 119.25 13.899C119.203 13.9376 119.142 13.9569 119.066 13.9569C118.934 13.9569 118.75 13.8651 118.514 13.6816C118.278 13.4884 117.972 13.2807 117.594 13.0585C117.226 12.8266 116.773 12.6189 116.236 12.4353C115.707 12.2421 115.07 12.1455 114.325 12.1455C113.514 12.1455 112.773 12.3145 112.103 12.6527C111.443 12.9812 110.877 13.469 110.405 14.1163C109.933 14.7636 109.565 15.5558 109.301 16.493C109.046 17.4204 108.919 18.4831 108.919 19.6811C108.919 20.8694 109.041 21.9225 109.287 22.8403C109.541 23.7484 109.9 24.5116 110.362 25.13C110.834 25.7386 111.41 26.2023 112.089 26.5211C112.768 26.8303 113.537 26.9849 114.396 26.9849C115.122 26.9849 115.754 26.8931 116.292 26.7095C116.839 26.526 117.302 26.3231 117.679 26.1009C118.066 25.869 118.382 25.6613 118.627 25.4778C118.873 25.2942 119.066 25.2024 119.208 25.2024C119.274 25.2024 119.33 25.2169 119.377 25.2459C119.425 25.2749 119.462 25.3328 119.491 25.4198C119.519 25.4971 119.538 25.6082 119.547 25.7531C119.566 25.898 119.576 26.0816 119.576 26.3038Z" fill="black"/>
<path d="M133.502 28.5934C133.502 28.6707 133.483 28.7384 133.445 28.7963C133.407 28.8446 133.346 28.8881 133.261 28.9268C133.176 28.9654 133.058 28.9944 132.907 29.0137C132.756 29.033 132.567 29.0427 132.341 29.0427C132.105 29.0427 131.912 29.033 131.761 29.0137C131.61 28.9944 131.492 28.9654 131.407 28.9268C131.322 28.8881 131.261 28.8446 131.223 28.7963C131.185 28.7384 131.166 28.6707 131.166 28.5934V20.9564C131.166 20.2125 131.11 19.6135 130.997 19.1594C130.883 18.7053 130.718 18.3141 130.501 17.9856C130.284 17.6571 130.001 17.4059 129.652 17.232C129.312 17.0581 128.916 16.9712 128.463 16.9712C127.878 16.9712 127.293 17.1837 126.708 17.6088C126.123 18.0339 125.51 18.657 124.869 19.4782V28.5934C124.869 28.6707 124.85 28.7384 124.812 28.7963C124.774 28.8446 124.713 28.8881 124.628 28.9268C124.543 28.9654 124.425 28.9944 124.274 29.0137C124.123 29.033 123.93 29.0427 123.694 29.0427C123.467 29.0427 123.279 29.033 123.128 29.0137C122.977 28.9944 122.854 28.9654 122.76 28.9268C122.675 28.8881 122.614 28.8446 122.576 28.7963C122.548 28.7384 122.533 28.6707 122.533 28.5934V9.23267C122.533 9.15538 122.548 9.08775 122.576 9.02979C122.614 8.97182 122.675 8.92351 122.76 8.88487C122.854 8.84622 122.977 8.81724 123.128 8.79792C123.279 8.7786 123.467 8.76894 123.694 8.76894C123.93 8.76894 124.123 8.7786 124.274 8.79792C124.425 8.81724 124.543 8.84622 124.628 8.88487C124.713 8.92351 124.774 8.97182 124.812 9.02979C124.85 9.08775 124.869 9.15538 124.869 9.23267V17.0436C125.538 16.3191 126.213 15.7829 126.892 15.4351C127.572 15.0776 128.256 14.8989 128.944 14.8989C129.794 14.8989 130.506 15.0486 131.081 15.3481C131.666 15.638 132.138 16.0292 132.497 16.5219C132.855 17.0147 133.11 17.5943 133.261 18.2609C133.421 18.9179 133.502 19.7149 133.502 20.6521V28.5934Z" fill="black"/>
<path d="M147.357 28.6079C147.357 28.7239 147.319 28.8108 147.244 28.8688C147.168 28.9268 147.064 28.9702 146.932 28.9992C146.8 29.0282 146.607 29.0427 146.352 29.0427C146.107 29.0427 145.908 29.0282 145.758 28.9992C145.616 28.9702 145.512 28.9268 145.446 28.8688C145.38 28.8108 145.347 28.7239 145.347 28.6079V27.3037C144.79 27.9123 144.168 28.3857 143.479 28.7239C142.8 29.062 142.078 29.2311 141.314 29.2311C140.644 29.2311 140.035 29.1393 139.488 28.9557C138.95 28.7818 138.488 28.5258 138.101 28.1877C137.724 27.8495 137.426 27.4341 137.209 26.9414C137.002 26.4487 136.898 25.8883 136.898 25.2604C136.898 24.5261 137.044 23.8885 137.337 23.3475C137.629 22.8065 138.049 22.3572 138.596 21.9998C139.144 21.6423 139.813 21.3766 140.606 21.2027C141.399 21.0192 142.29 20.9274 143.281 20.9274H145.036V19.913C145.036 19.4106 144.984 18.9662 144.88 18.5798C144.776 18.1933 144.606 17.8745 144.371 17.6233C144.144 17.3625 143.847 17.1692 143.479 17.0436C143.111 16.9084 142.658 16.8408 142.12 16.8408C141.545 16.8408 141.026 16.9132 140.564 17.0581C140.111 17.1934 139.71 17.348 139.361 17.5219C139.021 17.6861 138.733 17.8407 138.497 17.9856C138.271 18.1209 138.101 18.1885 137.988 18.1885C137.912 18.1885 137.846 18.1692 137.79 18.1305C137.733 18.0919 137.681 18.0339 137.634 17.9566C137.596 17.8793 137.568 17.7827 137.549 17.6668C137.53 17.5412 137.521 17.4059 137.521 17.261C137.521 17.0195 137.535 16.8311 137.563 16.6958C137.601 16.5509 137.681 16.4157 137.804 16.2901C137.936 16.1645 138.158 16.0196 138.469 15.8553C138.78 15.6814 139.139 15.5269 139.545 15.3916C139.95 15.2467 140.394 15.1307 140.875 15.0438C141.356 14.9472 141.842 14.8989 142.333 14.8989C143.248 14.8989 144.026 15.0052 144.668 15.2177C145.309 15.4302 145.828 15.7442 146.225 16.1597C146.621 16.5654 146.909 17.0726 147.088 17.6813C147.267 18.2899 147.357 19 147.357 19.8115V28.6079ZM145.036 22.6519H143.04C142.399 22.6519 141.842 22.7099 141.37 22.8258C140.899 22.9321 140.507 23.0963 140.196 23.3185C139.884 23.531 139.653 23.7919 139.502 24.1011C139.361 24.4005 139.29 24.7483 139.29 25.1444C139.29 25.8207 139.497 26.3617 139.913 26.7675C140.337 27.1636 140.927 27.3617 141.682 27.3617C142.295 27.3617 142.861 27.2023 143.38 26.8834C143.908 26.5646 144.46 26.0767 145.036 25.4198V22.6519Z" fill="black"/>
<path d="M157.999 27.637C157.999 27.9172 157.98 28.1394 157.943 28.3036C157.905 28.4679 157.848 28.5886 157.773 28.6659C157.697 28.7432 157.584 28.8157 157.433 28.8833C157.282 28.9509 157.108 29.004 156.91 29.0427C156.721 29.091 156.518 29.1296 156.301 29.1586C156.084 29.1876 155.867 29.2021 155.65 29.2021C154.99 29.2021 154.424 29.1151 153.952 28.9412C153.48 28.7577 153.093 28.4872 152.791 28.1297C152.489 27.7626 152.268 27.3037 152.126 26.753C151.994 26.1927 151.928 25.5357 151.928 24.7822V17.1596H150.145C150.003 17.1596 149.89 17.0823 149.805 16.9277C149.72 16.7731 149.678 16.5219 149.678 16.1741C149.678 15.9906 149.687 15.836 149.706 15.7104C149.734 15.5848 149.767 15.4834 149.805 15.4061C149.843 15.3191 149.89 15.2612 149.947 15.2322C150.013 15.1935 150.083 15.1742 150.159 15.1742H151.928V12.073C151.928 12.0054 151.942 11.9426 151.97 11.8846C152.008 11.8267 152.069 11.7784 152.154 11.7397C152.249 11.6914 152.371 11.6576 152.522 11.6383C152.673 11.619 152.862 11.6093 153.088 11.6093C153.324 11.6093 153.518 11.619 153.669 11.6383C153.82 11.6576 153.938 11.6914 154.023 11.7397C154.107 11.7784 154.169 11.8267 154.206 11.8846C154.244 11.9426 154.263 12.0054 154.263 12.073V15.1742H157.532C157.608 15.1742 157.674 15.1935 157.73 15.2322C157.787 15.2612 157.834 15.3191 157.872 15.4061C157.919 15.4834 157.952 15.5848 157.971 15.7104C157.99 15.836 157.999 15.9906 157.999 16.1741C157.999 16.5219 157.957 16.7731 157.872 16.9277C157.787 17.0823 157.674 17.1596 157.532 17.1596H154.263V24.4344C154.263 25.3328 154.39 26.0139 154.645 26.4777C154.909 26.9317 155.376 27.1588 156.046 27.1588C156.263 27.1588 156.457 27.1395 156.627 27.1008C156.796 27.0525 156.947 27.0042 157.079 26.9559C157.212 26.9076 157.325 26.8641 157.419 26.8255C157.513 26.7772 157.598 26.753 157.674 26.753C157.721 26.753 157.763 26.7675 157.801 26.7965C157.848 26.8158 157.881 26.8593 157.9 26.9269C157.929 26.9945 157.952 27.0863 157.971 27.2023C157.99 27.3182 157.999 27.4631 157.999 27.637Z" fill="black"/>
<defs>
<clipPath id="clip0_609_8022">
<rect width="49.9831" height="38" fill="white"/>
</clipPath>
</defs>
</svg>
